<svg width="47" height="45" viewBox="0 0 47 45" fill="none" xmlns="http://www.w3.org/2000/svg">
<path d="M39.6562 12.6562C39.6562 13.0292 39.5015 13.3869 39.2261 13.6506C38.9506 13.9143 38.577 14.0625 38.1875 14.0625H32.3125C31.923 14.0625 31.5494 13.9143 31.2739 13.6506C30.9985 13.3869 30.8438 13.0292 30.8438 12.6562C30.8438 12.2833 30.9985 11.9256 31.2739 11.6619C31.5494 11.3982 31.923 11.25 32.3125 11.25H38.1875C38.577 11.25 38.9506 11.3982 39.2261 11.6619C39.5015 11.9256 39.6562 12.2833 39.6562 12.6562ZM38.1875 16.875H32.3125C31.923 16.875 31.5494 17.0232 31.2739 17.2869C30.9985 17.5506 30.8438 17.9083 30.8438 18.2812C30.8438 18.6542 30.9985 19.0119 31.2739 19.2756C31.5494 19.5393 31.923 19.6875 32.3125 19.6875H38.1875C38.577 19.6875 38.9506 19.5393 39.2261 19.2756C39.5015 19.0119 39.6562 18.6542 39.6562 18.2812C39.6562 17.9083 39.5015 17.5506 39.2261 17.2869C38.9506 17.0232 38.577 16.875 38.1875 16.875ZM45.5312 8.4375V36.5625C45.5312 37.3084 45.2218 38.0238 44.6709 38.5512C44.12 39.0787 43.3728 39.375 42.5938 39.375H27.9062C27.1272 39.375 26.38 39.0787 25.8291 38.5512C25.2782 38.0238 24.9688 37.3084 24.9688 36.5625V33.75H17.625V36.5625H20.5625C20.952 36.5625 21.3256 36.7107 21.6011 36.9744C21.8765 37.2381 22.0312 37.5958 22.0312 37.9688C22.0312 38.3417 21.8765 38.6994 21.6011 38.9631C21.3256 39.2268 20.952 39.375 20.5625 39.375H11.75C11.3605 39.375 10.9869 39.2268 10.7114 38.9631C10.436 38.6994 10.2812 38.3417 10.2812 37.9688C10.2812 37.5958 10.436 37.2381 10.7114 36.9744C10.9869 36.7107 11.3605 36.5625 11.75 36.5625H14.6875V33.75H5.875C4.70639 33.75 3.58564 33.3055 2.75931 32.5144C1.93298 31.7232 1.46875 30.6501 1.46875 29.5312V16.875C1.46875 15.7561 1.93298 14.6831 2.75931 13.8919C3.58564 13.1007 4.70639 12.6563 5.875 12.6562H24.9688V8.4375C24.9688 7.69158 25.2782 6.97621 25.8291 6.44876C26.38 5.92132 27.1272 5.625 27.9062 5.625H42.5938C43.3728 5.625 44.12 5.92132 44.6709 6.44876C45.2218 6.97621 45.5312 7.69158 45.5312 8.4375ZM24.9688 30.9375V15.4688H5.875C5.48546 15.4688 5.11188 15.6169 4.83644 15.8806C4.56099 16.1444 4.40625 16.502 4.40625 16.875V29.5312C4.40625 29.9042 4.56099 30.2619 4.83644 30.5256C5.11188 30.7893 5.48546 30.9375 5.875 30.9375H24.9688ZM42.5938 36.5625V8.4375H27.9062V36.5625H42.5938ZM35.25 29.5312C34.8143 29.5312 34.3883 29.655 34.026 29.8867C33.6637 30.1185 33.3813 30.448 33.2146 30.8334C33.0478 31.2188 33.0042 31.643 33.0892 32.0521C33.1742 32.4613 33.384 32.8372 33.6922 33.1322C34.0003 33.4272 34.3928 33.6281 34.8202 33.7095C35.2476 33.7909 35.6905 33.7491 36.0931 33.5894C36.4957 33.4298 36.8397 33.1594 37.0818 32.8125C37.3239 32.4656 37.4531 32.0578 37.4531 31.6406C37.4531 31.0812 37.221 30.5447 36.8078 30.1491C36.3947 29.7535 35.8343 29.5312 35.25 29.5312Z" fill="#0070C0"/>
</svg>
