<svg width="213" height="47" viewBox="0 0 213 47" fill="none" xmlns="http://www.w3.org/2000/svg">
<path d="M11.28 46.91C9.55333 46.91 7.96667 46.7467 6.52 46.42C5.07333 46.0933 3.88333 45.4867 2.95 44.6C2.25 43.9467 1.78333 43.2233 1.55 42.43C1.31667 41.59 1.2 40.68 1.2 39.7C1.2 38.1133 1.34 36.5267 1.62 34.94C2.04 32.1867 2.41333 29.2233 2.74 26.05C3.06667 22.8767 3.23 19.9367 3.23 17.23C3.23 16.39 3.18333 15.4333 3.09 14.36C3.04333 13.2867 2.95 12.2833 2.81 11.35C2.48333 11.49 2.15667 11.63 1.83 11.77C1.55 11.8633 1.29333 11.91 1.06 11.91C0.64 11.91 0.36 11.7 0.22 11.28C0.0800002 10.86 0.0100001 10.3933 0.0100001 9.88C0.0100001 8.52667 0.313333 7.38333 0.92 6.45C1.57333 5.47 2.62333 4.60666 4.07 3.86C5.61 3.02 7.61667 2.29667 10.09 1.69C12.61 1.03667 15.1533 0.709999 17.72 0.709999C23.5533 0.709999 28.1267 2.43667 31.44 5.89C34.8 9.29667 36.48 14.15 36.48 20.45C36.48 24.0433 35.92 27.45 34.8 30.67C33.7267 33.8433 32.1167 36.6667 29.97 39.14C27.8233 41.5667 25.1867 43.48 22.06 44.88C18.9333 46.2333 15.34 46.91 11.28 46.91ZM13.52 39.07C15.62 39.07 17.72 38.7433 19.82 38.09C21.92 37.4367 23.81 36.4567 25.49 35.15C27.2167 33.8433 28.5933 32.1867 29.62 30.18C30.6467 28.1267 31.16 25.6767 31.16 22.83C31.16 19.61 30.53 16.95 29.27 14.85C28.01 12.75 26.33 11.1867 24.23 10.16C22.13 9.13333 19.7967 8.62 17.23 8.62C15.83 8.62 14.43 8.73666 13.03 8.97C11.6767 9.20333 10.6033 9.43666 9.81 9.67C9.76333 11.8167 9.62333 13.9167 9.39 15.97C9.20333 17.9767 8.97 19.9367 8.69 21.85C8.41 23.8567 8.17667 25.8167 7.99 27.73C7.85 29.6433 7.78 31.5333 7.78 33.4C7.78 35.7333 8.24667 37.2733 9.18 38.02C10.16 38.72 11.6067 39.07 13.52 39.07ZM52.9661 46.91C49.7461 46.91 47.1561 46.0467 45.1961 44.32C43.2828 42.5467 42.3261 39.9567 42.3261 36.55C42.3261 34.9633 42.5361 33.4233 42.9561 31.93C43.4228 30.4367 44.0294 29.0367 44.7761 27.73C44.0294 28.1967 43.4694 28.43 43.0961 28.43C42.5361 28.43 42.1394 28.1267 41.9061 27.52C41.7194 26.8667 41.6261 26.2367 41.6261 25.63C41.6261 24.5567 41.8361 23.7167 42.2561 23.11C42.7228 22.4567 43.1661 21.9667 43.5861 21.64C44.5661 20.8 46.1061 19.89 48.2061 18.91C50.3061 17.8833 52.8261 17.37 55.7661 17.37C59.7794 17.37 62.8828 18.49 65.0761 20.73C67.3161 22.97 68.4361 26.0967 68.4361 30.11C68.4361 33.2367 67.7828 36.0833 66.4761 38.65C65.1694 41.17 63.3494 43.1767 61.0161 44.67C58.7294 46.1633 56.0461 46.91 52.9661 46.91ZM55.1361 39.77C57.4694 39.77 59.4294 39.0467 61.0161 37.6C62.6494 36.1067 63.4661 34.1467 63.4661 31.72C63.4661 29.2 62.6494 27.4033 61.0161 26.33C59.3828 25.2567 57.4928 24.72 55.3461 24.72C54.3661 24.72 53.4794 24.8133 52.6861 25C51.8928 25.1867 51.1461 25.42 50.4461 25.7C49.7928 26.6333 49.2094 27.6833 48.6961 28.85C48.1828 30.0167 47.9261 31.3 47.9261 32.7C47.9261 35.0333 48.6261 36.8067 50.0261 38.02C51.4261 39.1867 53.1294 39.77 55.1361 39.77ZM83.9799 46.91C80.7133 46.91 78.1466 45.93 76.2799 43.97C74.4599 41.9633 73.5499 39.1867 73.5499 35.64C73.5499 32.14 74.2966 29.0133 75.7899 26.26C77.2833 23.5067 79.3366 21.3367 81.9499 19.75C84.5633 18.1633 87.5266 17.37 90.8399 17.37C93.0799 17.37 94.8533 17.7433 96.1599 18.49C97.4666 19.2367 98.1199 20.2633 98.1199 21.57C98.1199 22.7367 97.5599 23.88 96.4399 25C96.0199 25.42 95.4599 25.8167 94.7599 26.19C94.1066 26.5167 93.5933 26.68 93.2199 26.68C92.7999 26.68 92.4499 26.5167 92.1699 26.19C91.7033 25.6767 91.0966 25.1867 90.3499 24.72C89.6033 24.2533 88.5533 24.02 87.1999 24.02C84.9133 24.02 83.0466 24.8133 81.5999 26.4C80.1533 27.94 79.4299 29.97 79.4299 32.49C79.4299 34.7767 80.0833 36.62 81.3899 38.02C82.6966 39.42 84.4233 40.12 86.5699 40.12C87.6899 40.12 88.9033 39.9333 90.2099 39.56C91.5633 39.14 92.7533 38.5567 93.7799 37.81C94.2933 37.3433 94.8299 37.11 95.3899 37.11C96.3233 37.11 96.7899 37.6933 96.7899 38.86C96.7899 40.4 96.0199 41.87 94.4799 43.27C93.3133 44.3433 91.7499 45.23 89.7899 45.93C87.8766 46.5833 85.9399 46.91 83.9799 46.91ZM115.561 46.91C111.501 46.91 108.211 45.8367 105.691 43.69C103.218 41.4967 101.981 38.5333 101.981 34.8C101.981 31.3 103.008 28.3133 105.061 25.84C107.161 23.3667 109.914 21.36 113.321 19.82C112.808 18.42 112.364 17.0433 111.991 15.69C111.664 14.3367 111.501 12.9833 111.501 11.63C111.501 9.29667 112.014 7.33667 113.041 5.75C114.068 4.11666 115.398 2.88 117.031 2.04C118.664 1.2 120.391 0.779998 122.211 0.779998C123.938 0.779998 125.501 1.13 126.901 1.83C128.348 2.53 129.514 3.53333 130.401 4.84C131.288 6.14667 131.731 7.71 131.731 9.53C131.731 11.4433 131.218 13.17 130.191 14.71C129.211 16.2033 127.858 17.5567 126.131 18.77C124.451 19.9367 122.561 20.9867 120.461 21.92C121.674 24.02 123.098 26.19 124.731 28.43C126.364 30.6233 128.021 32.5367 129.701 34.17C130.961 33.05 131.988 31.8833 132.781 30.67C133.574 29.4567 133.971 28.22 133.971 26.96C133.971 26.0267 133.738 25.42 133.271 25.14C132.851 24.8133 132.408 24.58 131.941 24.44C131.381 24.2533 130.938 24.0667 130.611 23.88C130.331 23.6467 130.191 23.2733 130.191 22.76C130.191 21.92 130.471 21.0333 131.031 20.1C131.591 19.12 132.314 18.28 133.201 17.58C134.088 16.88 135.044 16.53 136.071 16.53C137.004 16.53 137.844 16.9733 138.591 17.86C139.338 18.7 139.711 20.31 139.711 22.69C139.711 25.07 139.221 27.4733 138.241 29.9C137.308 32.3267 135.791 34.73 133.691 37.11C134.904 37.9033 136.071 38.3 137.191 38.3C138.031 38.3 138.661 38.16 139.081 37.88C139.501 37.6 139.874 37.2967 140.201 36.97C140.434 36.7367 140.668 36.55 140.901 36.41C141.134 36.27 141.414 36.2 141.741 36.2C143.001 36.2 143.631 37.1567 143.631 39.07C143.631 40.1433 143.351 41.2867 142.791 42.5C142.278 43.6667 141.461 44.6467 140.341 45.44C139.221 46.2333 137.751 46.63 135.931 46.63C134.298 46.63 132.828 46.28 131.521 45.58C130.261 44.88 129.024 43.9233 127.811 42.71C125.944 44.0633 124.008 45.1133 122.001 45.86C120.041 46.56 117.894 46.91 115.561 46.91ZM118.361 17.79C120.321 16.8567 121.908 15.8533 123.121 14.78C124.381 13.7067 125.011 12.54 125.011 11.28C125.011 10.3467 124.684 9.57666 124.031 8.97C123.378 8.31666 122.444 7.99 121.231 7.99C119.971 7.99 118.968 8.41 118.221 9.25C117.474 10.0433 117.101 11.14 117.101 12.54C117.101 13.1933 117.194 13.9867 117.381 14.92C117.614 15.8533 117.941 16.81 118.361 17.79ZM116.611 39.49C117.684 39.49 118.828 39.3733 120.041 39.14C121.301 38.9067 122.468 38.5567 123.541 38.09C122.654 36.9233 121.651 35.4767 120.531 33.75C119.458 32.0233 118.431 30.2733 117.451 28.5C116.518 26.7267 115.771 25.2333 115.211 24.02C113.018 25.0467 111.291 26.33 110.031 27.87C108.818 29.3633 108.211 30.9967 108.211 32.77C108.211 34.7767 108.981 36.41 110.521 37.67C112.061 38.8833 114.091 39.49 116.611 39.49ZM164.805 46.91C161.491 46.91 158.575 46.1633 156.055 44.67C153.581 43.1767 151.668 41.0533 150.315 38.3C148.961 35.5467 148.285 32.28 148.285 28.5C148.285 24.9067 148.868 21.4533 150.035 18.14C151.201 14.8267 152.881 11.8633 155.075 9.25C157.268 6.63666 159.905 4.56 162.985 3.02C166.065 1.48 169.541 0.709999 173.415 0.709999C176.308 0.709999 178.688 1.15333 180.555 2.04C182.421 2.92666 183.355 4.23333 183.355 5.96C183.355 6.8 183.121 7.64 182.655 8.48C182.235 9.27333 181.675 9.95 180.975 10.51C180.275 11.07 179.551 11.35 178.805 11.35C178.338 11.35 177.965 11.2333 177.685 11C176.425 10.16 175.188 9.55333 173.975 9.18C172.761 8.76 171.361 8.55 169.775 8.55C166.461 8.55 163.661 9.32 161.375 10.86C159.088 12.3533 157.338 14.3367 156.125 16.81C154.958 19.2833 154.375 21.9667 154.375 24.86C154.375 27.66 154.911 30.1333 155.985 32.28C157.058 34.4267 158.551 36.1067 160.465 37.32C162.378 38.5333 164.618 39.14 167.185 39.14C169.238 39.14 171.221 38.7433 173.135 37.95C175.095 37.11 176.821 35.9667 178.315 34.52C178.968 33.9133 179.621 33.61 180.275 33.61C180.835 33.61 181.231 33.8433 181.465 34.31C181.698 34.7767 181.815 35.2433 181.815 35.71C181.815 36.5033 181.581 37.4133 181.115 38.44C180.648 39.42 179.925 40.4 178.945 41.38C177.218 43.1067 175.095 44.46 172.575 45.44C170.055 46.42 167.465 46.91 164.805 46.91ZM197.273 46.91C194.053 46.91 191.463 46.0467 189.503 44.32C187.589 42.5467 186.633 39.9567 186.633 36.55C186.633 34.9633 186.843 33.4233 187.263 31.93C187.729 30.4367 188.336 29.0367 189.083 27.73C188.336 28.1967 187.776 28.43 187.403 28.43C186.843 28.43 186.446 28.1267 186.213 27.52C186.026 26.8667 185.933 26.2367 185.933 25.63C185.933 24.5567 186.143 23.7167 186.563 23.11C187.029 22.4567 187.473 21.9667 187.893 21.64C188.873 20.8 190.413 19.89 192.513 18.91C194.613 17.8833 197.133 17.37 200.073 17.37C204.086 17.37 207.189 18.49 209.383 20.73C211.623 22.97 212.743 26.0967 212.743 30.11C212.743 33.2367 212.089 36.0833 210.783 38.65C209.476 41.17 207.656 43.1767 205.323 44.67C203.036 46.1633 200.353 46.91 197.273 46.91ZM199.443 39.77C201.776 39.77 203.736 39.0467 205.323 37.6C206.956 36.1067 207.773 34.1467 207.773 31.72C207.773 29.2 206.956 27.4033 205.323 26.33C203.689 25.2567 201.799 24.72 199.653 24.72C198.673 24.72 197.786 24.8133 196.993 25C196.199 25.1867 195.453 25.42 194.753 25.7C194.099 26.6333 193.516 27.6833 193.003 28.85C192.489 30.0167 192.233 31.3 192.233 32.7C192.233 35.0333 192.933 36.8067 194.333 38.02C195.733 39.1867 197.436 39.77 199.443 39.77Z" fill="#0070C0"/>
</svg>
