<svg width="49" height="46" viewBox="0 0 49 46" fill="none" xmlns="http://www.w3.org/2000/svg">
<path d="M40.8959 14.7955L30.1771 4.73297C30.0348 4.59952 29.8659 4.4937 29.68 4.42155C29.4941 4.34941 29.2949 4.31235 29.0938 4.3125H10.7188C9.90652 4.3125 9.12757 4.6154 8.55324 5.15457C7.97891 5.69374 7.65625 6.425 7.65625 7.1875V38.8125C7.65625 39.575 7.97891 40.3063 8.55324 40.8454C9.12757 41.3846 9.90652 41.6875 10.7188 41.6875H38.2812C39.0935 41.6875 39.8724 41.3846 40.4468 40.8454C41.0211 40.3063 41.3438 39.575 41.3438 38.8125V15.8125C41.3439 15.6237 41.3044 15.4367 41.2276 15.2622C41.1507 15.0876 41.038 14.9291 40.8959 14.7955ZM30.625 9.21977L36.1164 14.375H30.625V9.21977ZM38.2812 38.8125H10.7188V7.1875H27.5625V15.8125C27.5625 16.1937 27.7238 16.5594 28.011 16.829C28.2982 17.0985 28.6876 17.25 29.0938 17.25H38.2812V38.8125ZM32.1562 24.4375C32.1562 24.8187 31.9949 25.1844 31.7078 25.454C31.4206 25.7236 31.0311 25.875 30.625 25.875H18.375C17.9689 25.875 17.5794 25.7236 17.2922 25.454C17.0051 25.1844 16.8438 24.8187 16.8438 24.4375C16.8438 24.0563 17.0051 23.6906 17.2922 23.421C17.5794 23.1514 17.9689 23 18.375 23H30.625C31.0311 23 31.4206 23.1514 31.7078 23.421C31.9949 23.6906 32.1562 24.0563 32.1562 24.4375ZM32.1562 30.1875C32.1562 30.5687 31.9949 30.9344 31.7078 31.204C31.4206 31.4736 31.0311 31.625 30.625 31.625H18.375C17.9689 31.625 17.5794 31.4736 17.2922 31.204C17.0051 30.9344 16.8438 30.5687 16.8438 30.1875C16.8438 29.8063 17.0051 29.4406 17.2922 29.171C17.5794 28.9014 17.9689 28.75 18.375 28.75H30.625C31.0311 28.75 31.4206 28.9014 31.7078 29.171C31.9949 29.4406 32.1562 29.8063 32.1562 30.1875Z" fill="#0070C0"/>
</svg>
