<svg width="53" height="53" viewBox="0 0 53 53" fill="none" xmlns="http://www.w3.org/2000/svg">
<path d="M34.4539 40.0717C34.4691 39.1305 34.2452 38.2005 33.8028 37.367C34.5801 37.1314 35.2976 36.7344 35.9073 36.2024C36.517 35.6704 37.0049 35.0158 37.3383 34.2822C37.6717 33.5486 37.8429 32.7531 37.8406 31.9487C37.8382 31.1443 37.6624 30.3496 37.3247 29.6177L43.5875 29.7118C45.1024 29.7346 46.5642 29.161 47.6513 28.1173C48.7385 27.0737 49.3618 25.6453 49.3844 24.1466C49.4069 22.6479 48.8267 21.2015 47.7714 20.1256C46.7161 19.0498 45.2722 18.4326 43.7572 18.4098L27.4373 18.1647L28.6994 17.4125C29.3539 17.0495 29.9298 16.5625 30.394 15.9792C30.8583 15.3959 31.2018 14.7279 31.4051 14.0132C31.8155 12.5698 31.6296 11.024 30.8881 9.71592C30.1466 8.40782 28.9103 7.44454 27.4512 7.03799C25.9921 6.63144 24.4297 6.81493 23.1077 7.54809L21.4146 8.46538C8.93572 15.2242 3.77012 18.0212 3.6278 27.4967C3.56248 32.2054 5.38777 36.7482 8.70324 40.1283C12.0187 43.5083 16.5536 45.4498 21.313 45.5266L28.657 45.6369C30.1719 45.6596 31.6337 45.0861 32.7209 44.0424C33.808 42.9987 34.4314 41.5704 34.4539 40.0717ZM21.3615 42.2975C17.4674 42.2347 13.757 40.6463 11.0443 37.8807C8.33164 35.1152 6.83825 31.3984 6.8918 27.5457C7.00587 19.9512 10.7088 17.9457 22.9861 11.299L24.6874 10.3778L24.6976 10.3779C25.2641 10.065 25.9331 9.98737 26.5575 10.1622C27.182 10.337 27.7109 10.7498 28.0279 11.3101C28.2378 11.6812 28.3441 12.1008 28.3361 12.5259C28.3303 12.9517 28.2112 13.3683 27.9908 13.734C27.7704 14.0996 27.4564 14.4012 27.0805 14.6085C27.0641 14.6165 27.0483 14.6257 27.0332 14.6361L20.8566 18.3121C20.5537 18.4936 20.3187 18.7676 20.1871 19.0929C20.0554 19.4181 20.0343 19.7769 20.1269 20.1152C20.2195 20.4534 20.4208 20.7527 20.7004 20.9679C20.9799 21.183 21.3227 21.3024 21.6768 21.308L43.7087 21.639C44.358 21.6487 44.9768 21.9132 45.4291 22.3743C45.8813 22.8354 46.13 23.4553 46.1204 24.0976C46.1107 24.7399 45.8435 25.352 45.3776 25.7993C44.9117 26.2466 44.2852 26.4924 43.636 26.4827L29.764 26.2743C29.3312 26.2678 28.9135 26.4317 28.6029 26.7299C28.2923 27.0281 28.1142 27.4362 28.1078 27.8644C28.1013 28.2926 28.2671 28.7058 28.5686 29.0132C28.8701 29.3206 29.2827 29.497 29.7155 29.5035L32.1635 29.5402C32.8128 29.55 33.4316 29.8145 33.8838 30.2756C34.3361 30.7366 34.5848 31.3565 34.5751 31.9988C34.5655 32.6412 34.2983 33.2533 33.8324 33.7006C33.3665 34.1479 32.74 34.3937 32.0908 34.3839L28.0108 34.3227C27.5779 34.3161 27.1603 34.48 26.8497 34.7782C26.5391 35.0764 26.3609 35.4845 26.3545 35.9127C26.3481 36.3409 26.5139 36.7542 26.8154 37.0616C27.1169 37.3689 27.5294 37.5453 27.9623 37.5518L28.7783 37.564C29.4275 37.5738 30.0463 37.8383 30.4986 38.2994C30.9509 38.7605 31.1995 39.3804 31.1899 40.0227C31.1802 40.665 30.9131 41.2771 30.4472 41.7244C29.9812 42.1717 29.3548 42.4175 28.7055 42.4078L21.3615 42.2975Z" fill="#073D63"/>
</svg>
