<svg width="60" height="60" viewBox="0 0 60 60" fill="none" xmlns="http://www.w3.org/2000/svg">
<path d="M56.0578 22.7954C55.8234 22.0747 55.381 21.4396 54.7862 20.9699C54.1915 20.5003 53.471 20.2172 52.7157 20.1563L38.8875 19.0407L33.5485 6.12895C33.2597 5.42539 32.7683 4.82359 32.1367 4.40005C31.505 3.97651 30.7617 3.75037 30.0012 3.75037C29.2407 3.75037 28.4974 3.97651 27.8657 4.40005C27.2341 4.82359 26.7427 5.42539 26.4539 6.12895L21.1196 19.0383L7.28441 20.1563C6.52779 20.2203 5.80689 20.5061 5.21201 20.978C4.61713 21.4499 4.17474 22.0869 3.94026 22.8091C3.70578 23.5313 3.68964 24.3066 3.89386 25.038C4.09809 25.7693 4.51359 26.4241 5.08832 26.9204L15.6352 36.0211L12.4219 49.6289C12.2422 50.3682 12.2862 51.1442 12.5483 51.8585C12.8105 52.5727 13.2789 53.1929 13.8942 53.6404C14.5094 54.088 15.2438 54.3426 16.004 54.372C16.7643 54.4014 17.5161 54.2042 18.1641 53.8055L30 46.5211L41.843 53.8055C42.4912 54.1995 43.2415 54.3928 43.9994 54.3612C44.7573 54.3296 45.4889 54.0745 46.1021 53.628C46.7152 53.1814 47.1826 52.5634 47.4453 51.8518C47.7079 51.1402 47.7542 50.3668 47.5782 49.6289L44.3532 36.0188L54.9 26.918C55.4794 26.4226 55.8987 25.7664 56.1048 25.0325C56.3109 24.2985 56.2946 23.52 56.0578 22.7954ZM52.4625 24.0774L41.0485 33.9211C40.7882 34.1455 40.5945 34.4371 40.4887 34.764C40.3829 35.091 40.369 35.4407 40.4485 35.775L43.936 50.4938C43.945 50.5141 43.9459 50.5371 43.9385 50.558C43.9311 50.5789 43.9159 50.5962 43.8961 50.6063C43.8539 50.6391 43.8422 50.6321 43.8071 50.6063L30.9821 42.7196C30.6867 42.538 30.3468 42.4418 30 42.4418C29.6533 42.4418 29.3134 42.538 29.018 42.7196L16.193 50.611C16.1578 50.6321 16.1485 50.6391 16.1039 50.611C16.0842 50.6009 16.069 50.5836 16.0616 50.5627C16.0542 50.5417 16.0551 50.5188 16.0641 50.4985L19.5516 35.7797C19.6311 35.4454 19.6172 35.0957 19.5113 34.7687C19.4055 34.4418 19.2119 34.1502 18.9516 33.9258L7.53754 24.0821C7.50941 24.0586 7.48363 24.0375 7.50707 23.9649C7.5305 23.8922 7.54926 23.9016 7.58441 23.8969L22.5657 22.6875C22.9093 22.6581 23.2381 22.5344 23.516 22.3301C23.7939 22.1259 24.01 21.8489 24.1407 21.5297L29.911 7.55863C29.9297 7.51879 29.9368 7.50004 29.993 7.50004C30.0493 7.50004 30.0563 7.51879 30.075 7.55863L35.8594 21.5297C35.9913 21.849 36.2088 22.1257 36.488 22.3292C36.7672 22.5326 37.0971 22.655 37.4414 22.6829L52.4227 23.8922C52.4578 23.8922 52.4789 23.8922 52.5 23.9602C52.5211 24.0282 52.5 24.0539 52.4625 24.0774Z" fill="#336699"/>
</svg>
