<svg width="51" height="51" viewBox="0 0 51 51" fill="none" xmlns="http://www.w3.org/2000/svg">
<path d="M25.5 0C20.4566 0 15.5264 1.49555 11.333 4.29752C7.13952 7.0995 3.87112 11.0821 1.94108 15.7416C0.0110488 20.4011 -0.493936 25.5283 0.489987 30.4748C1.47391 35.4213 3.90255 39.965 7.46879 43.5312C11.035 47.0975 15.5787 49.5261 20.5252 50.51C25.4717 51.4939 30.5989 50.989 35.2584 49.0589C39.9179 47.1289 43.9005 43.8605 46.7025 39.667C49.5045 35.4736 51 30.5434 51 25.5C50.9929 18.7392 48.304 12.2573 43.5233 7.47666C38.7427 2.69603 32.2608 0.00713955 25.5 0ZM27.4615 46.9862V31.3846H33.3462C33.8664 31.3846 34.3653 31.1779 34.7332 30.8101C35.101 30.4422 35.3077 29.9433 35.3077 29.4231C35.3077 28.9028 35.101 28.4039 34.7332 28.0361C34.3653 27.6682 33.8664 27.4615 33.3462 27.4615H27.4615V21.5769C27.4615 20.5365 27.8749 19.5386 28.6106 18.8029C29.3463 18.0672 30.3442 17.6538 31.3846 17.6538H35.3077C35.8279 17.6538 36.3269 17.4472 36.6947 17.0793C37.0626 16.7115 37.2692 16.2125 37.2692 15.6923C37.2692 15.1721 37.0626 14.6731 36.6947 14.3053C36.3269 13.9374 35.8279 13.7308 35.3077 13.7308H31.3846C29.3037 13.7308 27.308 14.5574 25.8366 16.0289C24.3651 17.5003 23.5385 19.496 23.5385 21.5769V27.4615H17.6539C17.1336 27.4615 16.6347 27.6682 16.2668 28.0361C15.899 28.4039 15.6923 28.9028 15.6923 29.4231C15.6923 29.9433 15.899 30.4422 16.2668 30.8101C16.6347 31.1779 17.1336 31.3846 17.6539 31.3846H23.5385V46.9862C18.0089 46.4814 12.8867 43.8643 9.23748 39.6794C5.58822 35.4944 3.69278 30.0637 3.94544 24.5168C4.19809 18.97 6.57938 13.7341 10.594 9.89818C14.6086 6.06228 19.9474 3.9217 25.5 3.9217C31.0526 3.9217 36.3914 6.06228 40.406 9.89818C44.4206 13.7341 46.8019 18.97 47.0546 24.5168C47.3072 30.0637 45.4118 35.4944 41.7625 39.6794C38.1133 43.8643 32.9911 46.4814 27.4615 46.9862Z" fill="#336699"/>
</svg>
