<svg width="53" height="50" viewBox="0 0 53 50" fill="none" xmlns="http://www.w3.org/2000/svg">
<path d="M26.5 4.6875C22.2415 4.6875 18.0787 5.87881 14.5379 8.11077C10.9971 10.3427 8.23738 13.5151 6.60773 17.2267C4.97808 20.9384 4.55169 25.0225 5.38248 28.9628C6.21326 32.903 8.26392 36.5224 11.2751 39.3631C14.2863 42.2039 18.1228 44.1384 22.2995 44.9222C26.4761 45.706 30.8053 45.3037 34.7397 43.7663C38.674 42.2289 42.0367 39.6254 44.4026 36.285C46.7685 32.9446 48.0313 29.0174 48.0313 25C48.0252 19.6145 45.7548 14.4513 41.7182 10.6432C37.6817 6.83507 32.2086 4.69319 26.5 4.6875ZM26.5 42.1875C22.8967 42.1875 19.3743 41.1795 16.3782 39.2909C13.3822 37.4023 11.047 34.718 9.66808 31.5774C8.28914 28.4368 7.92835 24.9809 8.63133 21.6469C9.3343 18.3128 11.0695 15.2503 13.6174 12.8466C16.1653 10.4429 19.4116 8.80594 22.9457 8.14275C26.4798 7.47957 30.143 7.81994 33.472 9.12082C36.8011 10.4217 39.6464 12.6247 41.6483 15.4511C43.6502 18.2776 44.7188 21.6006 44.7188 25C44.7133 29.5568 42.792 33.9255 39.3766 37.1477C35.9611 40.3699 31.3302 42.1823 26.5 42.1875ZM39.75 25C39.75 25.4144 39.5755 25.8118 39.2649 26.1049C38.9543 26.3979 38.533 26.5625 38.0938 26.5625H26.5C26.0607 26.5625 25.6395 26.3979 25.3289 26.1049C25.0183 25.8118 24.8438 25.4144 24.8438 25V14.0625C24.8438 13.6481 25.0183 13.2507 25.3289 12.9576C25.6395 12.6646 26.0607 12.5 26.5 12.5C26.9393 12.5 27.3605 12.6646 27.6712 12.9576C27.9818 13.2507 28.1563 13.6481 28.1563 14.0625V23.4375H38.0938C38.533 23.4375 38.9543 23.6021 39.2649 23.8951C39.5755 24.1882 39.75 24.5856 39.75 25Z" fill="#336699"/>
</svg>
