<svg width="50" height="50" viewBox="0 0 50 50" fill="none" xmlns="http://www.w3.org/2000/svg">
<path d="M30.0675 3.48199C30.1354 3.22817 30.2527 2.99022 30.4125 2.78172C30.5724 2.57323 30.7718 2.39828 30.9993 2.26687C31.2269 2.13547 31.4781 2.05018 31.7385 2.01588C31.999 1.98159 32.2637 1.99895 32.5175 2.06699C36.2252 3.03437 39.608 4.9726 42.3174 7.68208C45.0269 10.3916 46.9651 13.7743 47.9325 17.482C48.0006 17.7358 48.0179 18.0005 47.9836 18.261C47.9493 18.5215 47.8641 18.7727 47.7326 19.0002C47.6012 19.2277 47.4263 19.4271 47.2178 19.587C47.0093 19.7469 46.7713 19.8641 46.5175 19.932C46.3486 19.9764 46.1747 19.9991 46 19.9995C45.5593 19.9995 45.1309 19.8539 44.7815 19.5854C44.432 19.3168 44.181 18.9404 44.0675 18.5145C43.2786 15.4878 41.6967 12.7263 39.485 10.5146C37.2733 8.30284 34.5117 6.72096 31.485 5.93199C31.231 5.86437 30.9928 5.74733 30.784 5.58756C30.5752 5.42779 30.4 5.22843 30.2683 5.00087C30.1367 4.77332 30.0512 4.52205 30.0167 4.26143C29.9823 4.0008 29.9995 3.73594 30.0675 3.48199ZM29.485 13.932C32.9325 14.852 35.1475 17.067 36.0675 20.5145C36.181 20.9404 36.432 21.3168 36.7815 21.5854C37.1309 21.8539 37.5593 21.9995 38 21.9995C38.1747 21.9991 38.3486 21.9764 38.5175 21.932C38.7713 21.8641 39.0093 21.7469 39.2178 21.587C39.4263 21.4271 39.6012 21.2277 39.7326 21.0002C39.8641 20.7727 39.9493 20.5215 39.9836 20.261C40.0179 20.0005 40.0006 19.7358 39.9325 19.482C38.6525 14.692 35.3075 11.347 30.5175 10.067C30.005 9.93008 29.4591 10.0024 28.9998 10.268C28.5406 10.5336 28.2057 10.9707 28.0688 11.4832C27.9319 11.9958 28.0041 12.5417 28.2697 13.0009C28.5353 13.4602 28.9725 13.7951 29.485 13.932ZM49.97 37.7695C49.5243 41.1571 47.8606 44.2665 45.2898 46.5172C42.719 48.7678 39.4168 50.0056 36 49.9995C16.15 49.9995 2.26216e-05 33.8495 2.26216e-05 13.9995C-0.00610233 10.5827 1.23174 7.28055 3.48236 4.70973C5.73297 2.13892 8.84245 0.475261 12.23 0.0294941C13.0867 -0.0751036 13.9541 0.100149 14.703 0.529091C15.4518 0.958032 16.0419 1.61766 16.385 2.40949L21.665 14.197V14.227C21.9277 14.8331 22.0362 15.4949 21.9808 16.1532C21.9254 16.8115 21.7079 17.4458 21.3475 17.9995C21.3025 18.067 21.255 18.1295 21.205 18.192L16 24.362C17.8725 28.167 21.8525 32.112 25.7075 33.9895L31.7925 28.812C31.8523 28.7618 31.9149 28.715 31.98 28.672C32.5333 28.303 33.1698 28.0778 33.8319 28.0166C34.4941 27.9555 35.1611 28.0605 35.7725 28.322L35.805 28.337L47.5825 33.6145C48.3758 33.9564 49.037 34.5459 49.4674 35.2949C49.8977 36.0438 50.0741 36.912 49.97 37.7695ZM46 37.2695C46 37.2695 45.9825 37.2695 45.9725 37.2695L34.2225 32.007L28.135 37.1845C28.076 37.2345 28.0142 37.2813 27.95 37.3245C27.3744 37.7085 26.709 37.9366 26.0189 37.9866C25.3287 38.0365 24.6374 37.9066 24.0125 37.6095C19.33 35.347 14.6625 30.7145 12.3975 26.082C12.0976 25.4616 11.963 24.7743 12.0068 24.0866C12.0506 23.399 12.2713 22.7343 12.6475 22.157C12.6899 22.0892 12.7376 22.0248 12.79 21.9645L18 15.787L12.75 4.03699C12.749 4.02702 12.749 4.01697 12.75 4.00699C10.3257 4.32324 8.09972 5.5124 6.48905 7.35178C4.87839 9.19116 3.99347 11.5546 4.00002 13.9995C4.00929 22.4836 7.38368 30.6175 13.3828 36.6167C19.382 42.6158 27.5159 45.9902 36 45.9995C38.4434 46.0079 40.8062 45.1261 42.6467 43.5189C44.4871 41.9117 45.6792 39.6892 46 37.267V37.2695Z" fill="#336699"/>
</svg>
