<svg width="75" height="75" viewBox="0 0 75 75" fill="none" xmlns="http://www.w3.org/2000/svg">
<path d="M62.5957 24.123L46.1895 7.7168C45.9716 7.49922 45.7131 7.32668 45.4286 7.20906C45.144 7.09143 44.8391 7.03101 44.5312 7.03125H16.4062C15.163 7.03125 13.9708 7.52511 13.0917 8.40419C12.2126 9.28326 11.7188 10.4755 11.7188 11.7188V63.2812C11.7188 64.5245 12.2126 65.7167 13.0917 66.5958C13.9708 67.4749 15.163 67.9688 16.4062 67.9688H58.5938C59.837 67.9688 61.0292 67.4749 61.9083 66.5958C62.7874 65.7167 63.2812 64.5245 63.2812 63.2812V25.7812C63.2815 25.4734 63.2211 25.1685 63.1034 24.8839C62.9858 24.5994 62.8133 24.3409 62.5957 24.123ZM46.875 15.0322L55.2803 23.4375H46.875V15.0322ZM58.5938 63.2812H16.4062V11.7188H42.1875V25.7812C42.1875 26.4029 42.4344 26.999 42.874 27.4385C43.3135 27.8781 43.9096 28.125 44.5312 28.125H58.5938V63.2812ZM49.2188 39.8438C49.2188 40.4654 48.9718 41.0615 48.5323 41.501C48.0927 41.9406 47.4966 42.1875 46.875 42.1875H28.125C27.5034 42.1875 26.9073 41.9406 26.4677 41.501C26.0282 41.0615 25.7812 40.4654 25.7812 39.8438C25.7812 39.2221 26.0282 38.626 26.4677 38.1865C26.9073 37.7469 27.5034 37.5 28.125 37.5H46.875C47.4966 37.5 48.0927 37.7469 48.5323 38.1865C48.9718 38.626 49.2188 39.2221 49.2188 39.8438ZM49.2188 49.2188C49.2188 49.8404 48.9718 50.4365 48.5323 50.876C48.0927 51.3156 47.4966 51.5625 46.875 51.5625H28.125C27.5034 51.5625 26.9073 51.3156 26.4677 50.876C26.0282 50.4365 25.7812 49.8404 25.7812 49.2188C25.7812 48.5971 26.0282 48.001 26.4677 47.5615C26.9073 47.1219 27.5034 46.875 28.125 46.875H46.875C47.4966 46.875 48.0927 47.1219 48.5323 47.5615C48.9718 48.001 49.2188 48.5971 49.2188 49.2188Z" fill="#336699"/>
</svg>
