<svg width="78" height="65" viewBox="0 0 78 65" fill="none" xmlns="http://www.w3.org/2000/svg">
<path d="M75.4 59.8001H70.2V36.4004L70.9605 37.1609C71.4492 37.6487 72.1117 37.9225 72.8023 37.9218C73.4929 37.9212 74.1549 37.6463 74.6427 37.1576C75.1306 36.6689 75.4044 36.0064 75.4037 35.3158C75.4031 34.6253 75.1282 33.9633 74.6395 33.4754L42.6757 1.52182C41.7007 0.547381 40.3785 0 39 0C37.6215 0 36.2993 0.547381 35.3242 1.52182L3.3605 33.4754C2.87307 33.9633 2.5994 34.6248 2.5997 35.3144C2.60001 36.004 2.87426 36.6653 3.36212 37.1527C3.84999 37.6402 4.51151 37.9138 5.20115 37.9135C5.89079 37.9132 6.55206 37.639 7.0395 37.1511L7.8 36.4004V59.8001H2.6C1.91044 59.8001 1.24912 60.074 0.761522 60.5616C0.273928 61.0492 0 61.7105 0 62.4C0 63.0896 0.273928 63.7509 0.761522 64.2385C1.24912 64.7261 1.91044 65 2.6 65H75.4C76.0896 65 76.7509 64.7261 77.2385 64.2385C77.7261 63.7509 78 63.0896 78 62.4C78 61.7105 77.7261 61.0492 77.2385 60.5616C76.7509 60.074 76.0896 59.8001 75.4 59.8001ZM13 31.2004L39 5.20077L65 31.2004V59.8001H49.4V41.6003C49.4 40.9107 49.1261 40.2494 48.6385 39.7618C48.1509 39.2743 47.4896 39.0003 46.8 39.0003H31.2C30.5104 39.0003 29.8491 39.2743 29.3615 39.7618C28.8739 40.2494 28.6 40.9107 28.6 41.6003V59.8001H13V31.2004ZM44.2 59.8001H33.8V44.2003H44.2V59.8001Z" fill="#336699"/>
</svg>
