<svg width="53" height="45" viewBox="0 0 53 45" fill="none" xmlns="http://www.w3.org/2000/svg">
<path d="M52.6526 15.3175L47.3685 2.26106C47.1739 1.7805 46.9045 1.352 46.5757 1.00003C46.2469 0.648067 45.8653 0.379527 45.4524 0.209749C45.0396 0.0399712 44.6038 -0.0277193 44.1698 0.0105436C43.7358 0.0488064 43.3121 0.192274 42.923 0.432751L37.7736 3.61119L26.9259 0.0670892C26.6476 -0.0223631 26.3553 -0.0223631 26.077 0.0670892L15.2293 3.61119L10.0798 0.432751C9.69075 0.192274 9.26711 0.0488064 8.83311 0.0105436C8.39911 -0.0277193 7.96326 0.0399712 7.55045 0.209749C7.13764 0.379527 6.75595 0.648067 6.42719 1.00003C6.09842 1.352 5.82901 1.7805 5.63435 2.26106L0.350287 15.3149C0.155563 15.7954 0.039393 16.3186 0.00841013 16.8546C-0.0225727 17.3906 0.0322388 17.9288 0.169714 18.4386C0.30719 18.9484 0.524637 19.4198 0.809637 19.8258C1.09464 20.2319 1.44161 20.5646 1.83074 20.805L7.42125 24.2596L18.9108 34.3933C19.0801 34.542 19.2704 34.6504 19.4719 34.7129L32.7235 38.8042C33.001 38.8902 33.2918 38.8859 33.5676 38.7918C33.8434 38.6977 34.0947 38.5169 34.2971 38.2672L45.6997 24.1829L51.1701 20.805C51.9554 20.3194 52.5525 19.4687 52.8301 18.4397C53.1077 17.4107 53.0431 16.2877 52.6505 15.3175H52.6526ZM41.2873 23.8504L34.1625 16.8031C33.8433 16.4875 33.4409 16.3287 33.0326 16.3575C32.6244 16.3863 32.2392 16.6006 31.9512 16.9591C28.2635 21.5465 24.1534 20.9661 21.5321 18.9204L30.4852 8.18069H37.0717L42.7056 22.0937L41.2873 23.8504ZM8.59732 4.08937L12.8358 6.7027L7.54134 19.7566L3.31119 17.1458L8.59732 4.08937ZM32.6158 34.5518L20.5838 30.8389L10.3966 21.8534L16.1942 7.53375L26.5014 4.16096L28.5306 4.82325L19.2131 15.9925L19.1965 16.0156C18.8458 16.4487 18.5783 16.9736 18.4137 17.5515C18.2492 18.1294 18.1919 18.7455 18.2459 19.3544C18.3 19.9634 18.4641 20.5495 18.7261 21.0697C18.9881 21.5898 19.3413 22.0306 19.7597 22.3597C24.0168 25.7171 29.1538 25.1724 33.1997 21.0811L38.9248 26.7604L32.6158 34.5518ZM45.4533 19.754L40.1692 6.71293L44.4056 4.08937L49.6917 17.1458L45.4533 19.754ZM27.2841 43.4504C27.1946 43.8925 26.9882 44.2851 26.6975 44.5658C26.4067 44.8466 26.0485 44.9994 25.6794 45C25.5433 44.9998 25.4078 44.9792 25.2757 44.9386L16.6477 42.2742C16.4459 42.2127 16.2554 42.1042 16.0865 41.9545L10.6306 37.1421C10.2951 36.8168 10.0742 36.3443 10.0138 35.8228C9.9534 35.3014 10.0582 34.7713 10.3063 34.3429C10.5545 33.9145 10.9269 33.6208 11.346 33.523C11.7651 33.4252 12.1986 33.5309 12.5562 33.8179L17.7554 38.4053L26.0873 40.9726C26.5134 41.1042 26.8798 41.4395 27.1057 41.9046C27.3317 42.3698 27.3989 42.9267 27.2924 43.453L27.2841 43.4504Z" fill="#336699"/>
</svg>
