<svg width="31" height="20" viewBox="0 0 31 20" fill="none" xmlns="http://www.w3.org/2000/svg">
<path d="M29.8077 0H1.19231C0.876088 0 0.57282 0.105357 0.349219 0.292893C0.125618 0.48043 0 0.734784 0 1V18C0 18.5304 0.251235 19.0391 0.698438 19.4142C1.14564 19.7893 1.75218 20 2.38462 20H28.6154C29.2478 20 29.8544 19.7893 30.3016 19.4142C30.7488 19.0391 31 18.5304 31 18V1C31 0.734784 30.8744 0.48043 30.6508 0.292893C30.4272 0.105357 30.1239 0 29.8077 0ZM15.5 10.6437L4.25803 2H26.742L15.5 10.6437ZM11.1347 10L2.38462 16.7262V3.27375L11.1347 10ZM12.8993 11.3563L14.6877 12.7375C14.9077 12.9069 15.1954 13.0008 15.494 13.0008C15.7926 13.0008 16.0804 12.9069 16.3003 12.7375L18.0888 11.3563L26.733 18H4.25803L12.8993 11.3563ZM19.8653 10L28.6154 3.2725V16.7275L19.8653 10Z" fill="#336699"/>
</svg>
