<svg width="58" height="58" viewBox="0 0 58 58" fill="none" xmlns="http://www.w3.org/2000/svg">
<path d="M26.2813 29C26.2813 28.4623 26.4408 27.9366 26.7395 27.4895C27.0382 27.0424 27.4629 26.694 27.9596 26.4882C28.4564 26.2824 29.0031 26.2286 29.5305 26.3335C30.0578 26.4384 30.5423 26.6973 30.9225 27.0776C31.3027 27.4578 31.5617 27.9422 31.6666 28.4696C31.7715 28.997 31.7176 29.5436 31.5119 30.0404C31.3061 30.5372 30.9576 30.9618 30.5105 31.2606C30.0634 31.5593 29.5378 31.7188 29.0001 31.7188C28.279 31.7188 27.5875 31.4323 27.0776 30.9224C26.5677 30.4126 26.2813 29.7211 26.2813 29ZM19.0313 31.7188C19.569 31.7188 20.0947 31.5593 20.5418 31.2606C20.9889 30.9618 21.3373 30.5372 21.5431 30.0404C21.7489 29.5436 21.8027 28.997 21.6978 28.4696C21.5929 27.9422 21.334 27.4578 20.9538 27.0776C20.5735 26.6973 20.0891 26.4384 19.5617 26.3335C19.0343 26.2286 18.4877 26.2824 17.9909 26.4882C17.4941 26.694 17.0695 27.0424 16.7708 27.4895C16.472 27.9366 16.3126 28.4623 16.3126 29C16.3126 29.7211 16.599 30.4126 17.1089 30.9224C17.6187 31.4323 18.3103 31.7188 19.0313 31.7188ZM38.9688 31.7188C39.5065 31.7188 40.0322 31.5593 40.4793 31.2606C40.9264 30.9618 41.2748 30.5372 41.4806 30.0404C41.6864 29.5436 41.7402 28.997 41.6353 28.4696C41.5304 27.9422 41.2715 27.4578 40.8913 27.0776C40.511 26.6973 40.0266 26.4384 39.4992 26.3335C38.9718 26.2286 38.4252 26.2824 37.9284 26.4882C37.4316 26.694 37.007 27.0424 36.7083 27.4895C36.4095 27.9366 36.2501 28.4623 36.2501 29C36.2501 29.7211 36.5365 30.4126 37.0464 30.9224C37.5562 31.4323 38.2478 31.7188 38.9688 31.7188ZM52.5626 14.5V43.5C52.5626 44.4614 52.1806 45.3834 51.5008 46.0633C50.821 46.7431 49.899 47.125 48.9376 47.125H18.8047L11.4188 53.505L11.3984 53.5209C10.746 54.074 9.91793 54.3768 9.06256 54.375C8.53006 54.3738 8.00425 54.2563 7.52194 54.0306C6.89632 53.7415 6.36713 53.2784 5.99754 52.6967C5.62794 52.115 5.43354 51.4392 5.43756 50.75V14.5C5.43756 13.5386 5.81948 12.6166 6.4993 11.9367C7.17912 11.2569 8.10115 10.875 9.06256 10.875H48.9376C49.899 10.875 50.821 11.2569 51.5008 11.9367C52.1806 12.6166 52.5626 13.5386 52.5626 14.5ZM48.9376 14.5H9.06256V50.75L16.9401 43.9531C17.2676 43.6643 17.6884 43.5034 18.1251 43.5H48.9376V14.5Z" fill="#336699"/>
</svg>
