<svg width="47" height="47" viewBox="0 0 47 47" fill="none" xmlns="http://www.w3.org/2000/svg">
<path d="M36.7188 20.5625C36.7188 20.952 36.564 21.3256 36.2886 21.6011C36.0131 21.8765 35.6395 22.0312 35.25 22.0312H27.9062C27.5167 22.0312 27.1431 21.8765 26.8677 21.6011C26.5922 21.3256 26.4375 20.952 26.4375 20.5625C26.4375 20.173 26.5922 19.7994 26.8677 19.5239C27.1431 19.2485 27.5167 19.0938 27.9062 19.0938H35.25C35.6395 19.0938 36.0131 19.2485 36.2886 19.5239C36.564 19.7994 36.7188 20.173 36.7188 20.5625ZM35.25 24.9688H27.9062C27.5167 24.9688 27.1431 25.1235 26.8677 25.3989C26.5922 25.6744 26.4375 26.048 26.4375 26.4375C26.4375 26.827 26.5922 27.2006 26.8677 27.4761C27.1431 27.7515 27.5167 27.9062 27.9062 27.9062H35.25C35.6395 27.9062 36.0131 27.7515 36.2886 27.4761C36.564 27.2006 36.7188 26.827 36.7188 26.4375C36.7188 26.048 36.564 25.6744 36.2886 25.3989C36.0131 25.1235 35.6395 24.9688 35.25 24.9688ZM42.5938 10.2812V36.7188C42.5938 37.4978 42.2843 38.245 41.7334 38.7959C41.1825 39.3468 40.4353 39.6562 39.6562 39.6562H7.34375C6.56468 39.6562 5.81751 39.3468 5.26662 38.7959C4.71574 38.245 4.40625 37.4978 4.40625 36.7188V10.2812C4.40625 9.50218 4.71574 8.75501 5.26662 8.20412C5.81751 7.65324 6.56468 7.34375 7.34375 7.34375H39.6562C40.4353 7.34375 41.1825 7.65324 41.7334 8.20412C42.2843 8.75501 42.5938 9.50218 42.5938 10.2812ZM39.6562 36.7188V10.2812H7.34375V36.7188H39.6562ZM24.921 30.4766C25.0184 30.8539 24.9619 31.2545 24.7639 31.5902C24.5659 31.9259 24.2427 32.1692 23.8654 32.2666C23.488 32.364 23.0874 32.3075 22.7517 32.1095C22.416 31.9115 22.1727 31.5883 22.0753 31.2109C21.5925 29.3273 19.6776 27.9062 17.6232 27.9062C15.5687 27.9062 13.6557 29.3273 13.171 31.2109C13.0736 31.5883 12.8303 31.9115 12.4946 32.1095C12.1589 32.3075 11.7583 32.364 11.381 32.2666C11.0036 32.1692 10.6804 31.9259 10.4824 31.5902C10.2844 31.2545 10.2279 30.8539 10.3253 30.4766C10.8019 28.7026 11.9286 27.1729 13.4813 26.1915C12.6562 25.3713 12.0931 24.3245 11.8636 23.1839C11.6341 22.0433 11.7484 20.8603 12.192 19.7847C12.6357 18.7092 13.3887 17.7895 14.3556 17.1424C15.3225 16.4953 16.4597 16.1499 17.6232 16.1499C18.7866 16.1499 19.9239 16.4953 20.8908 17.1424C21.8577 17.7895 22.6107 18.7092 23.0543 19.7847C23.4979 20.8603 23.6122 22.0433 23.3827 23.1839C23.1532 24.3245 22.5902 25.3713 21.765 26.1915C23.3195 27.1715 24.4471 28.7017 24.9229 30.4766H24.921ZM17.625 24.9688C18.206 24.9688 18.7739 24.7965 19.257 24.4737C19.7401 24.1509 20.1166 23.6921 20.3389 23.1554C20.5612 22.6186 20.6194 22.028 20.5061 21.4582C20.3927 20.8884 20.1129 20.3649 19.7021 19.9541C19.2913 19.5433 18.7679 19.2635 18.1981 19.1502C17.6283 19.0368 17.0376 19.095 16.5009 19.3174C15.9641 19.5397 15.5053 19.9162 15.1826 20.3993C14.8598 20.8823 14.6875 21.4503 14.6875 22.0312C14.6875 22.8103 14.997 23.5575 15.5479 24.1084C16.0988 24.6593 16.8459 24.9688 17.625 24.9688Z" fill="#0070C0"/>
</svg>
