<svg width="79" height="85" viewBox="0 0 79 85" fill="none" xmlns="http://www.w3.org/2000/svg">
<g filter="url(#filter0_d_250_69)">
<path d="M54.3124 74.3125C54.3124 74.9921 54.0523 75.6439 53.5893 76.1245C53.1264 76.605 52.4984 76.875 51.8437 76.875H27.1562C26.5014 76.875 25.8735 76.605 25.4105 76.1245C24.9475 75.6439 24.6874 74.9921 24.6874 74.3125C24.6874 73.6329 24.9475 72.9811 25.4105 72.5005C25.8735 72.02 26.5014 71.75 27.1562 71.75H51.8437C52.4984 71.75 53.1264 72.02 53.5893 72.5005C54.0523 72.9811 54.3124 73.6329 54.3124 74.3125ZM66.6562 33.3125C66.6668 37.5843 65.7371 41.8022 63.938 45.6442C62.1388 49.4863 59.5179 52.8509 56.2751 55.4813C55.6687 55.9638 55.1767 56.5837 54.8365 57.2937C54.4963 58.0038 54.3171 58.7852 54.3124 59.5781V61.5C54.3124 62.8592 53.7922 64.1628 52.8663 65.1239C51.9403 66.085 50.6844 66.625 49.3749 66.625H29.6249C28.3154 66.625 27.0595 66.085 26.1336 65.1239C25.2076 64.1628 24.6874 62.8592 24.6874 61.5V59.5781C24.6869 58.7946 24.5133 58.0217 24.1801 57.3187C23.8468 56.6157 23.3626 56.0014 22.7649 55.523C19.5306 52.9084 16.9117 49.5645 15.1062 45.7443C13.3007 41.9242 12.3561 37.7277 12.3437 33.4727C12.2634 18.2034 24.1505 5.49336 38.8457 5.125C42.4666 5.03443 46.0683 5.69661 49.439 7.07256C52.8096 8.4485 55.881 10.5104 58.4724 13.1369C61.0638 15.7635 63.1228 18.9015 64.5283 22.3664C65.9337 25.8313 66.6572 29.553 66.6562 33.3125ZM61.7187 33.3125C61.7195 30.2364 61.1275 27.1912 59.9775 24.3562C58.8275 21.5212 57.1427 18.9536 55.0223 16.8046C52.9019 14.6556 50.3887 12.9686 47.6307 11.8429C44.8727 10.7173 41.9256 10.1757 38.963 10.25C26.9278 10.5447 17.2164 20.9452 17.2812 33.4374C17.2922 36.9179 18.0659 40.3502 19.5436 43.4746C21.0214 46.5989 23.1645 49.3334 25.8107 51.471C27.0002 52.4308 27.9623 53.6604 28.6234 55.0656C29.2845 56.4707 29.6271 58.0143 29.6249 59.5781V61.5H37.0312V47.1852L27.8783 37.688C27.415 37.2071 27.1548 36.555 27.1548 35.875C27.1548 35.195 27.415 34.5429 27.8783 34.062C28.3415 33.5812 28.9698 33.3111 29.6249 33.3111C30.28 33.3111 30.9083 33.5812 31.3716 34.062L39.4999 42.5023L47.6283 34.062C47.8576 33.8239 48.13 33.6351 48.4296 33.5062C48.7293 33.3774 49.0505 33.3111 49.3749 33.3111C49.6993 33.3111 50.0205 33.3774 50.3202 33.5062C50.6199 33.6351 50.8922 33.8239 51.1216 34.062C51.3509 34.3001 51.5329 34.5828 51.657 34.8938C51.7811 35.2049 51.845 35.5383 51.845 35.875C51.845 36.2117 51.7811 36.5451 51.657 36.8562C51.5329 37.1672 51.3509 37.4499 51.1216 37.688L41.9687 47.1852V61.5H49.3749V59.5781C49.3777 58.0097 49.7258 56.4628 50.3928 55.0554C51.0597 53.6481 52.0278 52.4177 53.2231 51.4582C55.8773 49.3052 58.0225 46.5511 59.4948 43.4063C60.9672 40.2615 61.7278 36.809 61.7187 33.3125Z" fill="#073D63"/>
</g>
<defs>
<filter id="filter0_d_250_69" x="-4" y="0" width="87" height="90" filterUnits="userSpaceOnUse" color-interpolation-filters="sRGB">
<feFlood flood-opacity="0" result="BackgroundImageFix"/>
<feColorMatrix in="SourceAlpha" type="matrix" values="0 0 0 0 0 0 0 0 0 0 0 0 0 0 0 0 0 0 127 0" result="hardAlpha"/>
<feOffset dy="4"/>
<feGaussianBlur stdDeviation="2"/>
<feComposite in2="hardAlpha" operator="out"/>
<feColorMatrix type="matrix" values="0 0 0 0 1 0 0 0 0 0.941106 0 0 0 0 0.293269 0 0 0 0.25 0"/>
<feBlend mode="normal" in2="BackgroundImageFix" result="effect1_dropShadow_250_69"/>
<feBlend mode="normal" in="SourceGraphic" in2="effect1_dropShadow_250_69" result="shape"/>
</filter>
</defs>
</svg>
