<svg width="52" height="52" viewBox="0 0 52 52" fill="none" xmlns="http://www.w3.org/2000/svg">
<path d="M42.25 6.5H9.75C8.88805 6.5 8.0614 6.84241 7.4519 7.4519C6.84241 8.0614 6.5 8.88805 6.5 9.75V42.25C6.5 43.112 6.84241 43.9386 7.4519 44.5481C8.0614 45.1576 8.88805 45.5 9.75 45.5H42.25C43.112 45.5 43.9386 45.1576 44.5481 44.5481C45.1576 43.9386 45.5 43.112 45.5 42.25V9.75C45.5 8.88805 45.1576 8.0614 44.5481 7.4519C43.9386 6.84241 43.112 6.5 42.25 6.5ZM42.25 42.25H9.75V9.75H42.25V42.25ZM14.625 15.4375C14.625 14.9554 14.768 14.4841 15.0358 14.0833C15.3036 13.6825 15.6843 13.37 16.1297 13.1855C16.5751 13.0011 17.0652 12.9528 17.538 13.0468C18.0109 13.1409 18.4452 13.373 18.7861 13.7139C19.127 14.0548 19.3591 14.4891 19.4532 14.962C19.5472 15.4348 19.4989 15.9249 19.3145 16.3703C19.13 16.8157 18.8175 17.1964 18.4167 17.4642C18.0159 17.732 17.5446 17.875 17.0625 17.875C16.416 17.875 15.796 17.6182 15.3389 17.1611C14.8818 16.704 14.625 16.084 14.625 15.4375ZM23.5625 15.4375C23.5625 14.9554 23.7055 14.4841 23.9733 14.0833C24.2411 13.6825 24.6218 13.37 25.0672 13.1855C25.5126 13.0011 26.0027 12.9528 26.4755 13.0468C26.9484 13.1409 27.3827 13.373 27.7236 13.7139C28.0645 14.0548 28.2966 14.4891 28.3907 14.962C28.4847 15.4348 28.4364 15.9249 28.252 16.3703C28.0675 16.8157 27.755 17.1964 27.3542 17.4642C26.9534 17.732 26.4821 17.875 26 17.875C25.3535 17.875 24.7335 17.6182 24.2764 17.1611C23.8193 16.704 23.5625 16.084 23.5625 15.4375ZM32.5 15.4375C32.5 14.9554 32.643 14.4841 32.9108 14.0833C33.1786 13.6825 33.5593 13.37 34.0047 13.1855C34.4501 13.0011 34.9402 12.9528 35.413 13.0468C35.8859 13.1409 36.3202 13.373 36.6611 13.7139C37.002 14.0548 37.2341 14.4891 37.3282 14.962C37.4222 15.4348 37.3739 15.9249 37.1895 16.3703C37.005 16.8157 36.6925 17.1964 36.2917 17.4642C35.8909 17.732 35.4196 17.875 34.9375 17.875C34.291 17.875 33.671 17.6182 33.2139 17.1611C32.7568 16.704 32.5 16.084 32.5 15.4375ZM37.375 21.125H14.625C14.194 21.125 13.7807 21.2962 13.476 21.601C13.1712 21.9057 13 22.319 13 22.75V37.375C13 37.806 13.1712 38.2193 13.476 38.524C13.7807 38.8288 14.194 39 14.625 39H37.375C37.806 39 38.2193 38.8288 38.524 38.524C38.8288 38.2193 39 37.806 39 37.375V22.75C39 22.319 38.8288 21.9057 38.524 21.601C38.2193 21.2962 37.806 21.125 37.375 21.125ZM35.75 35.75H16.25V24.375H35.75V35.75Z" fill="#0070C0"/>
</svg>
