<svg width="45" height="45" viewBox="0 0 45 45" fill="none" xmlns="http://www.w3.org/2000/svg">
<path d="M39.9586 12.8971L32.1029 5.04317C31.8418 4.78193 31.5317 4.57471 31.1904 4.43333C30.8492 4.29195 30.4834 4.21918 30.114 4.21918C29.7446 4.21918 29.3788 4.29195 29.0375 4.43333C28.6963 4.57471 28.3862 4.78193 28.125 5.04317L6.44943 26.7188C6.18713 26.979 5.97917 27.2887 5.83764 27.63C5.69611 27.9713 5.62383 28.3374 5.62501 28.7068V36.5625C5.62501 37.3084 5.92133 38.0238 6.44878 38.5512C6.97622 39.0787 7.69159 39.375 8.43751 39.375H16.2932C16.6627 39.3762 17.0287 39.3039 17.37 39.1624C17.7113 39.0209 18.021 38.8129 18.2813 38.5506L32.9889 23.8447L33.6006 26.2881L27.1319 32.7551C26.868 33.0187 26.7196 33.3764 26.7195 33.7494C26.7193 34.1224 26.8673 34.4802 27.131 34.744C27.3946 35.0079 27.7523 35.1563 28.1253 35.1564C28.4983 35.1566 28.8561 35.0086 29.1199 34.7449L36.1512 27.7137C36.3232 27.542 36.4477 27.3287 36.5127 27.0946C36.5777 26.8605 36.5809 26.6135 36.5221 26.3777L35.3092 21.5244L39.9586 16.875C40.2198 16.6138 40.4271 16.3038 40.5684 15.9625C40.7098 15.6212 40.7826 15.2554 40.7826 14.886C40.7826 14.5166 40.7098 14.1509 40.5684 13.8096C40.4271 13.4683 40.2198 13.1582 39.9586 12.8971ZM8.43751 31.5193L13.4807 36.5625H8.43751V31.5193ZM16.875 35.9807L9.01935 28.125L23.9063 13.2381L31.7619 21.0938L16.875 35.9807ZM33.75 19.1057L25.8961 11.25L30.1149 7.03125L37.9688 14.8869L33.75 19.1057Z" fill="#0070C0"/>
</svg>
