<svg width="50" height="50" viewBox="0 0 50 50" fill="none" xmlns="http://www.w3.org/2000/svg">
<path d="M39.0625 7.8125H35.0215L32.3555 5.14453C32.2103 4.99948 32.0379 4.88446 31.8482 4.80604C31.6585 4.72762 31.4553 4.68734 31.25 4.6875H18.75C18.5447 4.68734 18.3415 4.72762 18.1518 4.80604C17.9621 4.88446 17.7897 4.99948 17.6445 5.14453L14.9785 7.8125H10.9375C10.1087 7.8125 9.31384 8.14174 8.72779 8.72779C8.14174 9.31384 7.8125 10.1087 7.8125 10.9375V40.625C7.8125 41.4538 8.14174 42.2487 8.72779 42.8347C9.31384 43.4208 10.1087 43.75 10.9375 43.75H39.0625C39.8913 43.75 40.6862 43.4208 41.2722 42.8347C41.8583 42.2487 42.1875 41.4538 42.1875 40.625V10.9375C42.1875 10.1087 41.8583 9.31384 41.2722 8.72779C40.6862 8.14174 39.8913 7.8125 39.0625 7.8125ZM25 12.8086L21.6797 7.8125H28.3398L25 12.8086ZM31.4922 8.70703L32.8125 10.0215V20.3125L27.0645 15.3438L31.4922 8.70703ZM17.1875 10.0215L18.5078 8.70313L22.9355 15.3438L17.1875 20.3125V10.0215ZM10.9375 10.9375H14.0625V20.3125C14.0588 20.9072 14.2265 21.4903 14.5455 21.9922C14.8645 22.4941 15.3213 22.8935 15.8613 23.1426C16.2766 23.3363 16.7292 23.437 17.1875 23.4375C17.9165 23.4362 18.6218 23.1783 19.1797 22.709C19.1877 22.7035 19.195 22.697 19.2012 22.6895L23.4375 19.0391V40.625H10.9375V10.9375ZM39.0625 40.625H26.5625V19.0391L30.791 22.6914C30.7972 22.6989 30.8044 22.7055 30.8125 22.7109C31.3727 23.1812 32.081 23.4386 32.8125 23.4375C33.2738 23.4363 33.7293 23.3336 34.1465 23.1367C34.6841 22.8869 35.1387 22.4879 35.4562 21.9873C35.7737 21.4866 35.9407 20.9053 35.9375 20.3125V10.9375H39.0625V40.625Z" fill="#0070C0"/>
</svg>
