<svg width="52" height="52" viewBox="0 0 52 52" fill="none" xmlns="http://www.w3.org/2000/svg">
<path d="M46.7472 11.958C46.5946 11.7754 46.4039 11.6286 46.1884 11.5279C45.9729 11.4271 45.7379 11.375 45.5 11.375H12.7319L11.4969 4.58453C11.4289 4.21011 11.2316 3.87143 10.9394 3.62755C10.6473 3.38367 10.2788 3.25006 9.89828 3.25H4.875C4.44402 3.25 4.0307 3.4212 3.72595 3.72595C3.4212 4.0307 3.25 4.44402 3.25 4.875C3.25 5.30598 3.4212 5.7193 3.72595 6.02405C4.0307 6.32879 4.44402 6.5 4.875 6.5H8.53125L13.7231 34.9964C13.8761 35.8415 14.2495 36.6312 14.8058 37.2856C14.0381 38.0027 13.4839 38.9184 13.2049 39.9311C12.9258 40.9439 12.9327 42.0142 13.2247 43.0233C13.5168 44.0324 14.0826 44.9409 14.8595 45.648C15.6363 46.3552 16.5939 46.8333 17.6259 47.0295C18.6579 47.2257 19.7241 47.1322 20.7063 46.7594C21.6884 46.3866 22.5481 45.7491 23.1901 44.9176C23.832 44.086 24.2311 43.0929 24.3431 42.0484C24.4551 41.0039 24.2756 39.9487 23.8245 39H33.0505C32.6869 39.7611 32.4988 40.594 32.5 41.4375C32.5 42.5624 32.8336 43.662 33.4585 44.5973C34.0835 45.5326 34.9717 46.2616 36.011 46.6921C37.0502 47.1225 38.1938 47.2352 39.2971 47.0157C40.4003 46.7963 41.4138 46.2546 42.2092 45.4592C43.0046 44.6638 43.5463 43.6503 43.7657 42.5471C43.9852 41.4438 43.8725 40.3002 43.4421 39.261C43.0116 38.2217 42.2826 37.3335 41.3473 36.7085C40.412 36.0836 39.3124 35.75 38.1875 35.75H18.5189C18.1384 35.7499 17.7699 35.6163 17.4778 35.3724C17.1856 35.1286 16.9883 34.7899 16.9203 34.4155L16.2764 30.875H39.8389C40.9806 30.8748 42.086 30.474 42.9624 29.7423C43.8388 29.0107 44.4306 27.9947 44.6347 26.8714L47.1047 13.2905C47.1465 13.0557 47.1362 12.8147 47.0744 12.5844C47.0126 12.3541 46.9009 12.1402 46.7472 11.958ZM21.125 41.4375C21.125 41.9196 20.982 42.3909 20.7142 42.7917C20.4464 43.1925 20.0657 43.505 19.6203 43.6895C19.1749 43.8739 18.6848 43.9222 18.212 43.8282C17.7391 43.7341 17.3048 43.502 16.9639 43.1611C16.623 42.8202 16.3909 42.3859 16.2968 41.913C16.2028 41.4402 16.2511 40.9501 16.4355 40.5047C16.62 40.0593 16.9325 39.6786 17.3333 39.4108C17.7341 39.143 18.2054 39 18.6875 39C19.334 39 19.954 39.2568 20.4111 39.7139C20.8682 40.171 21.125 40.791 21.125 41.4375ZM40.625 41.4375C40.625 41.9196 40.482 42.3909 40.2142 42.7917C39.9464 43.1925 39.5657 43.505 39.1203 43.6895C38.6749 43.8739 38.1848 43.9222 37.712 43.8282C37.2391 43.7341 36.8048 43.502 36.4639 43.1611C36.123 42.8202 35.8909 42.3859 35.7968 41.913C35.7028 41.4402 35.7511 40.9501 35.9355 40.5047C36.12 40.0593 36.4325 39.6786 36.8333 39.4108C37.2341 39.143 37.7054 39 38.1875 39C38.834 39 39.454 39.2568 39.9111 39.7139C40.3682 40.171 40.625 40.791 40.625 41.4375ZM41.4375 26.2905C41.3693 26.6659 41.1711 27.0054 40.8777 27.2494C40.5843 27.4934 40.2144 27.6264 39.8328 27.625H15.6853L13.323 14.625H43.552L41.4375 26.2905Z" fill="#0070C0"/>
</svg>
