<svg width="52" height="49" viewBox="0 0 52 49" fill="none" xmlns="http://www.w3.org/2000/svg">
<path d="M40.625 15.3125C41.056 15.3125 41.4693 15.1512 41.774 14.864C42.0788 14.5768 42.25 14.1874 42.25 13.7812C42.2468 10.9394 41.0473 8.2148 38.9148 6.20531C36.7822 4.19581 33.8908 3.06554 30.875 3.0625H16.25C15.388 3.0625 14.5614 3.38516 13.9519 3.95949C13.3424 4.53382 13 5.31277 13 6.125V15.3125C13 16.5308 12.4864 17.6993 11.5721 18.5608C10.6579 19.4223 9.41793 19.9062 8.125 19.9062C7.69402 19.9062 7.2807 20.0676 6.97595 20.3547C6.67121 20.6419 6.5 21.0314 6.5 21.4375C6.5 21.8436 6.67121 22.2331 6.97595 22.5203C7.2807 22.8074 7.69402 22.9688 8.125 22.9688C10.2799 22.9688 12.3465 22.1621 13.8702 20.7263C15.394 19.2905 16.25 17.3431 16.25 15.3125H22.75V20.0249C22.7521 20.714 22.5887 21.3946 22.2721 22.0158C21.9555 22.637 21.4939 23.1826 20.9219 23.6119L17.6719 26.06C16.7186 26.7754 15.9494 27.6847 15.4218 28.7199C14.8941 29.755 14.6218 30.8892 14.625 32.0376V42.875C14.625 43.6872 14.9674 44.4662 15.5769 45.0405C16.1864 45.6148 17.013 45.9375 17.875 45.9375H39C39.862 45.9375 40.6886 45.6148 41.2981 45.0405C41.9076 44.4662 42.25 43.6872 42.25 42.875V40.4767C42.2527 31.6721 39.8759 23.0119 35.3438 15.3125H40.625ZM16.25 6.125H30.875C32.7473 6.12751 34.5614 6.73803 36.0117 7.85369C37.4621 8.96936 38.4601 10.522 38.8375 12.25H16.25V6.125ZM39 40.4767V42.875H17.875V32.0376C17.8729 31.3485 18.0363 30.6679 18.3529 30.0467C18.6695 29.4255 19.1311 28.8799 19.7031 28.4506L22.9531 26.0025C23.9064 25.2871 24.6756 24.3778 25.2032 23.3426C25.7309 22.3075 26.0032 21.1733 26 20.0249V15.3125H31.59C36.4411 22.9101 39.0029 31.6099 39 40.4767Z" fill="#0070C0"/>
</svg>
